fd_7_states
version=1
nRows=47
nColumns=17
inDegrees=yes

# SIMM Motion File Header:
name fd_7_states
datacolumns 17
datarows 47
otherdata 1
range 0.030000 0.165638
endheader
time	/jointset/r_shoulder/r_shoulder_elev/value	/jointset/r_shoulder/r_shoulder_elev/speed	/jointset/r_elbow/r_elbow_flex/value	/jointset/r_elbow/r_elbow_flex/speed	/forceset/TRIlong/activation	/forceset/TRIlong/fiber_length	/forceset/TRIlat/activation	/forceset/TRIlat/fiber_length	/forceset/TRImed/activation	/forceset/TRImed/fiber_length	/forceset/BIClong/activation	/forceset/BIClong/fiber_length	/forceset/BICshort/activation	/forceset/BICshort/fiber_length	/forceset/BRA/activation	/forceset/BRA/fiber_length
      0.030000	      0.000000	      0.000000	     21.140481	      4.995103	      0.020000	      0.144740	      0.040574	      0.078388	      0.037597	      0.073464	      0.084367	      0.142428	      0.023841	      0.142199	      0.020000	      0.088257
      0.030371	     -0.000000	     -0.000487	     21.142335	      5.004712	      0.020000	      0.144741	      0.040565	      0.078389	      0.037604	      0.073465	      0.084548	      0.142428	      0.023840	      0.142199	      0.020000	      0.088257
      0.030741	     -0.000000	     -0.000821	     21.144191	      5.013636	      0.020000	      0.144741	      0.040561	      0.078390	      0.037663	      0.073466	      0.085117	      0.142429	      0.023851	      0.142198	      0.020000	      0.088256
      0.032595	     -0.000002	     -0.000638	     21.153520	      5.050075	      0.020000	      0.144745	      0.040542	      0.078394	      0.037907	      0.073470	      0.087504	      0.142429	      0.023894	      0.142196	      0.020000	      0.088254
      0.037744	     -0.000002	     -0.002171	     21.179766	      5.153716	      0.020000	      0.144755	      0.040490	      0.078406	      0.038278	      0.073479	      0.091378	      0.142413	      0.023960	      0.142187	      0.020000	      0.088248
      0.040072	     -0.000016	     -0.011190	     21.191848	      5.230960	      0.020000	      0.144759	      0.040469	      0.078411	      0.038354	      0.073483	      0.092193	      0.142403	      0.023974	      0.142182	      0.020000	      0.088245
      0.041893	     -0.000046	     -0.022365	     21.201440	      5.306907	      0.020000	      0.144763	      0.040663	      0.078415	      0.038338	      0.073486	      0.091686	      0.142396	      0.023981	      0.142179	      0.020000	      0.088243
      0.043714	     -0.000099	     -0.035045	     21.211178	      5.389076	      0.020000	      0.144767	      0.040837	      0.078419	      0.038315	      0.073490	      0.091094	      0.142390	      0.023987	      0.142175	      0.020000	      0.088241
      0.048082	     -0.000311	     -0.059868	     21.235129	      5.569752	      0.020000	      0.144776	      0.041081	      0.078427	      0.038262	      0.073499	      0.089746	      0.142381	      0.023994	      0.142167	      0.020000	      0.088235
      0.050057	     -0.000435	     -0.065058	     21.246192	      5.631173	      0.020000	      0.144780	      0.041135	      0.078430	      0.038241	      0.073503	      0.089187	      0.142379	      0.023996	      0.142163	      0.020000	      0.088233
      0.050503	     -0.000464	     -0.065553	     21.248709	      5.642714	      0.020000	      0.144781	      0.041133	      0.078431	      0.038290	      0.073504	      0.089241	      0.142378	      0.023996	      0.142162	      0.020000	      0.088232
      0.050950	     -0.000494	     -0.065791	     21.251231	      5.653373	      0.020000	      0.144782	      0.041129	      0.078432	      0.038381	      0.073505	      0.089664	      0.142378	      0.023997	      0.142161	      0.020000	      0.088231
      0.053183	     -0.000640	     -0.064194	     21.263907	      5.697813	      0.020000	      0.144787	      0.041107	      0.078436	      0.038739	      0.073509	      0.091382	      0.142372	      0.023998	      0.142157	      0.020000	      0.088229
      0.058251	     -0.000942	     -0.055077	     21.293009	      5.790165	      0.020000	      0.144798	      0.041059	      0.078447	      0.039172	      0.073517	      0.093616	      0.142353	      0.023999	      0.142146	      0.020000	      0.088222
      0.064957	     -0.001289	     -0.048793	     21.332379	      5.953771	      0.020000	      0.144813	      0.040991	      0.078462	      0.038837	      0.073530	      0.092030	      0.142331	      0.024126	      0.142131	      0.020000	      0.088213
      0.068670	     -0.001463	     -0.044286	     21.354652	      6.039991	      0.020000	      0.144822	      0.040955	      0.078471	      0.038593	      0.073540	      0.090863	      0.142325	      0.024161	      0.142122	      0.020000	      0.088208
      0.070119	     -0.001525	     -0.041037	     21.363424	      6.066754	      0.020000	      0.144825	      0.040941	      0.078475	      0.038504	      0.073543	      0.090448	      0.142324	      0.024168	      0.142119	      0.020000	      0.088206
      0.070775	     -0.001552	     -0.039209	     21.367409	      6.077247	      0.020000	      0.144827	      0.040938	      0.078476	      0.038491	      0.073545	      0.090604	      0.142323	      0.024167	      0.142117	      0.020000	      0.088205
      0.071431	     -0.001577	     -0.037198	     21.371400	      6.086887	      0.020000	      0.144828	      0.040936	      0.078478	      0.038487	      0.073547	      0.091034	      0.142322	      0.024166	      0.142115	      0.020000	      0.088204
      0.074713	     -0.001682	     -0.027536	     21.391447	      6.134234	      0.020000	      0.144836	      0.040924	      0.078486	      0.038464	      0.073556	      0.092627	      0.142314	      0.024159	      0.142108	      0.020000	      0.088199
      0.079878	     -0.001809	     -0.025142	     21.423401	      6.249989	      0.020000	      0.144848	      0.040907	      0.078499	      0.038431	      0.073569	      0.093938	      0.142296	      0.024148	      0.142096	      0.020000	      0.088192
      0.081924	     -0.001865	     -0.029861	     21.436258	      6.315251	      0.020000	      0.144853	      0.041038	      0.078504	      0.038635	      0.073574	      0.093979	      0.142289	      0.024155	      0.142092	      0.020000	      0.088189
      0.083971	     -0.001932	     -0.035323	     21.449254	      6.383906	      0.020000	      0.144858	      0.041249	      0.078509	      0.038975	      0.073579	      0.093940	      0.142283	      0.024185	      0.142087	      0.020000	      0.088186
      0.088981	     -0.002122	     -0.036430	     21.481605	      6.517994	      0.020000	      0.144871	      0.041531	      0.078519	      0.039428	      0.073589	      0.093849	      0.142268	      0.024223	      0.142075	      0.020000	      0.088179
      0.091006	     -0.002189	     -0.029290	     21.494837	      6.549793	      0.020000	      0.144876	      0.041624	      0.078524	      0.039496	      0.073593	      0.093949	      0.142262	      0.024243	      0.142070	      0.020000	      0.088175
      0.093031	     -0.002238	     -0.018055	     21.508121	      6.569454	      0.020000	      0.144881	      0.041826	      0.078528	      0.039409	      0.073597	      0.094604	      0.142256	      0.024307	      0.142064	      0.020000	      0.088172
      0.096488	     -0.002260	      0.005918	     21.530869	      6.590840	      0.020000	      0.144890	      0.042041	      0.078535	      0.039266	      0.073606	      0.095343	      0.142244	      0.024374	      0.142055	      0.020000	      0.088167
      0.100109	     -0.002190	      0.032105	     21.554776	      6.614122	      0.020000	      0.144900	      0.042144	      0.078543	      0.039125	      0.073615	      0.095799	      0.142231	      0.024435	      0.142045	      0.020000	      0.088162
      0.102199	     -0.002109	      0.045673	     21.568615	      6.634059	      0.020000	      0.144905	      0.042019	      0.078548	      0.039091	      0.073621	      0.096180	      0.142224	      0.025034	      0.142038	      0.020000	      0.088158
      0.105113	     -0.001957	      0.056586	     21.588020	      6.688589	      0.020000	      0.144913	      0.041820	      0.078555	      0.039056	      0.073629	      0.096583	      0.142213	      0.025667	      0.142023	      0.020000	      0.088154
      0.111252	     -0.001645	      0.034645	     21.629776	      6.947614	      0.020000	      0.144929	      0.041461	      0.078573	      0.039065	      0.073646	      0.096959	      0.142191	      0.026191	      0.141991	      0.020000	      0.088144
      0.114553	     -0.001580	      0.004036	     21.653034	      7.147128	      0.020000	      0.144938	      0.041414	      0.078583	      0.039451	      0.073655	      0.096896	      0.142181	      0.026102	      0.141977	      0.020000	      0.088139
      0.117854	     -0.001619	     -0.026351	     21.676960	      7.346957	      0.020000	      0.144948	      0.041380	      0.078593	      0.039696	      0.073662	      0.096831	      0.142171	      0.026011	      0.141966	      0.020000	      0.088134
      0.120583	     -0.001719	     -0.046105	     21.697221	      7.495826	      0.020000	      0.144955	      0.041378	      0.078601	      0.039793	      0.073669	      0.096847	      0.142163	      0.025945	      0.141959	      0.020000	      0.088129
      0.122143	     -0.001798	     -0.055166	     21.708975	      7.573576	      0.020000	      0.144960	      0.041595	      0.078606	      0.039762	      0.073673	      0.097299	      0.142158	      0.025955	      0.141954	      0.020000	      0.088126
      0.123703	     -0.001890	     -0.063018	     21.720847	      7.647326	      0.020000	      0.144965	      0.041787	      0.078610	      0.039730	      0.073677	      0.097704	      0.142153	      0.025966	      0.141950	      0.020000	      0.088124
      0.128835	     -0.002266	     -0.082026	     21.760672	      7.869721	      0.020000	      0.144980	      0.042144	      0.078623	      0.039627	      0.073692	      0.098515	      0.142134	      0.025987	      0.141935	      0.020000	      0.088115
      0.130815	     -0.002434	     -0.087263	     21.776335	      7.949685	      0.020000	      0.144986	      0.042203	      0.078628	      0.039612	      0.073698	      0.098810	      0.142126	      0.025991	      0.141929	      0.020000	      0.088111
      0.132795	     -0.002611	     -0.091492	     21.792154	      8.027387	      0.020000	      0.144992	      0.042180	      0.078634	      0.039771	      0.073704	      0.099621	      0.142118	      0.025994	      0.141924	      0.020000	      0.088107
      0.134775	     -0.002796	     -0.095457	     21.808127	      8.105808	      0.020000	      0.144998	      0.042158	      0.078640	      0.039895	      0.073710	      0.100235	      0.142109	      0.025996	      0.141918	      0.020000	      0.088104
      0.141395	     -0.003478	     -0.111602	     21.862703	      8.390461	      0.020000	      0.145019	      0.042096	      0.078660	      0.040070	      0.073729	      0.101179	      0.142079	      0.026012	      0.141898	      0.020000	      0.088091
      0.148014	     -0.004278	     -0.128837	     21.919249	      8.690711	      0.020000	      0.145040	      0.042228	      0.078681	      0.039981	      0.073750	      0.100721	      0.142053	      0.026079	      0.141877	      0.020000	      0.088078
      0.150531	     -0.004608	     -0.132467	     21.941260	      8.795168	      0.020000	      0.145049	      0.042266	      0.078690	      0.039991	      0.073759	      0.100687	      0.142045	      0.026101	      0.141869	      0.020000	      0.088073
      0.151964	     -0.004798	     -0.133210	     21.953898	      8.850060	      0.020000	      0.145053	      0.042332	      0.078694	      0.040191	      0.073764	      0.101335	      0.142039	      0.026147	      0.141864	      0.020000	      0.088071
      0.153396	     -0.004989	     -0.133017	     21.966612	      8.902202	      0.020000	      0.145058	      0.042385	      0.078699	      0.040362	      0.073768	      0.101911	      0.142033	      0.026184	      0.141859	      0.020000	      0.088068
      0.160558	     -0.005910	     -0.121832	     22.031242	      9.142098	      0.020000	      0.145083	      0.042519	      0.078723	      0.040742	      0.073790	      0.103514	      0.142000	      0.026273	      0.141833	      0.020000	      0.088053
      0.165638	     -0.006499	     -0.110692	     22.078115	      9.314072	      0.020000	      0.145101	      0.042577	      0.078740	      0.040627	      0.073807	      0.104436	      0.141976	      0.026294	      0.141815	      0.020000	      0.088042
